<svg width="1000" height="348" viewBox="0 0 1000 348" fill="none" xmlns="http://www.w3.org/2000/svg">
<g clip-path="url(#clip0_50_535)">
<rect width="1000" height="348" fill="#F3EAD1"/>
<path d="M9 -117V511" stroke="#F2DEB7"/>
<path d="M63.5 -117V511" stroke="#F2DEB7"/>
<path d="M118 -117V511" stroke="#F2DEB7"/>
<path d="M172.5 -117V511" stroke="#F2DEB7"/>
<path d="M227 -117V511" stroke="#F2DEB7"/>
<path d="M281.5 -117V511" stroke="#F2DEB7"/>
<path d="M336 -117V511" stroke="#F2DEB7"/>
<path d="M390.5 -117V511" stroke="#F2DEB7"/>
<path d="M445 -117V511" stroke="#F2DEB7"/>
<path d="M499.5 -117V511" stroke="#F2DEB7"/>
<path d="M554 -117V511" stroke="#F2DEB7"/>
<path d="M608.5 -117V511" stroke="#F2DEB7"/>
<path d="M663 -117V511" stroke="#F2DEB7"/>
<path d="M717.5 -117V511" stroke="#F2DEB7"/>
<path d="M772 -117V511" stroke="#F2DEB7"/>
<path d="M826.5 -117V511" stroke="#F2DEB7"/>
<path d="M881 -117V511" stroke="#F2DEB7"/>
<path d="M935.5 -117V511" stroke="#F2DEB7"/>
<path d="M990 -117V511" stroke="#F2DEB7"/>
<path d="M-306 40H1305.5" stroke="#F2DEB7"/>
<path d="M-306 95H1305.5" stroke="#F2DEB7"/>
<path d="M-306 150H1305.5" stroke="#F2DEB7"/>
<path d="M-306 205H1305.5" stroke="#F2DEB7"/>
<path d="M-306 260H1305.5" stroke="#F2DEB7"/>
<path d="M-306 315H1305.5" stroke="#F2DEB7"/>
<path d="M75.6662 126.604C73.7693 126.604 72.0736 126.402 70.5791 126C69.1133 125.626 67.8631 125.052 66.8284 124.276C65.7938 123.5 65.0034 122.537 64.4573 121.387C63.9113 120.237 63.6239 118.93 63.5951 117.464L69.1564 115.912C69.1852 117.234 69.487 118.326 70.0618 119.188C70.6366 120.051 71.4413 120.683 72.476 121.085C73.5107 121.488 74.6747 121.689 75.968 121.689C77.1464 121.689 78.1523 121.545 78.9858 121.258C79.848 120.97 80.4947 120.568 80.9258 120.051C81.3856 119.533 81.6156 118.959 81.6156 118.326C81.6156 117.579 81.3281 116.975 80.7533 116.516C80.1785 116.027 79.4025 115.625 78.4253 115.308C77.4481 114.992 76.3416 114.676 75.1058 114.36C73.755 114.044 72.4185 113.685 71.0964 113.282C69.8031 112.88 68.6104 112.377 67.5182 111.773C66.4548 111.141 65.607 110.322 64.9747 109.316C64.3424 108.31 64.0262 107.045 64.0262 105.522C64.0262 103.769 64.4717 102.26 65.3627 100.996C66.2536 99.7022 67.5326 98.7107 69.1996 98.0209C70.8665 97.3024 72.8496 96.9431 75.1489 96.9431C77.4769 96.9431 79.4887 97.3024 81.1844 98.0209C82.9089 98.7394 84.2453 99.7741 85.1938 101.125C86.1422 102.447 86.6021 104.042 86.5733 105.91L80.9258 107.247C80.9545 106.356 80.8252 105.58 80.5378 104.919C80.2791 104.229 79.8911 103.654 79.3738 103.194C78.8852 102.734 78.2673 102.389 77.52 102.16C76.8015 101.93 75.9824 101.815 75.0627 101.815C73.9705 101.815 73.0364 101.958 72.2604 102.246C71.5132 102.504 70.9384 102.878 70.536 103.367C70.1336 103.855 69.9324 104.416 69.9324 105.048C69.9324 105.824 70.2342 106.456 70.8378 106.945C71.4413 107.405 72.2461 107.793 73.252 108.109C74.2867 108.425 75.4363 108.741 76.7009 109.057C77.9367 109.345 79.187 109.69 80.4516 110.092C81.7449 110.466 82.9233 110.969 83.9867 111.601C85.0788 112.233 85.9554 113.081 86.6164 114.144C87.2775 115.179 87.608 116.487 87.608 118.068C87.608 119.849 87.1338 121.373 86.1853 122.637C85.2656 123.902 83.9148 124.879 82.1329 125.569C80.351 126.259 78.1954 126.604 75.6662 126.604ZM99.5478 126.517C97.0186 126.517 95.1504 125.856 93.9433 124.534C92.7362 123.183 92.1326 121.085 92.1326 118.24V108.238H89.0718L89.158 103.668H90.7531C91.874 103.611 92.6931 103.352 93.2104 102.892C93.7278 102.404 94.0439 101.642 94.1589 100.608L94.5469 98.2796H98.1251V103.367H103.73V108.411H98.1251V117.895C98.1251 118.959 98.3694 119.735 98.858 120.223C99.3753 120.683 100.108 120.913 101.057 120.913C101.545 120.913 102.034 120.855 102.522 120.74C103.011 120.597 103.442 120.396 103.816 120.137V125.871C102.954 126.129 102.163 126.302 101.445 126.388C100.726 126.474 100.094 126.517 99.5478 126.517ZM112.56 126.604C111.353 126.604 110.247 126.374 109.241 125.914C108.264 125.454 107.473 124.75 106.87 123.801C106.295 122.853 106.007 121.675 106.007 120.266C106.007 118.973 106.252 117.909 106.74 117.076C107.229 116.214 107.933 115.524 108.853 115.007C109.772 114.461 110.865 114.029 112.129 113.713C113.394 113.397 114.788 113.124 116.311 112.894C117.432 112.693 118.308 112.521 118.941 112.377C119.602 112.233 120.076 112.032 120.363 111.773C120.651 111.486 120.794 111.084 120.794 110.566C120.794 109.675 120.478 108.957 119.846 108.411C119.242 107.865 118.337 107.592 117.13 107.592C116.354 107.592 115.621 107.735 114.931 108.023C114.242 108.281 113.652 108.712 113.164 109.316C112.675 109.92 112.359 110.696 112.215 111.644L106.697 110.437C106.927 109.057 107.344 107.893 107.947 106.945C108.58 105.968 109.37 105.177 110.318 104.574C111.267 103.941 112.33 103.482 113.509 103.194C114.716 102.907 115.98 102.763 117.302 102.763C119.487 102.763 121.283 103.137 122.691 103.884C124.1 104.603 125.149 105.709 125.838 107.204C126.528 108.698 126.873 110.595 126.873 112.894V116.817C126.873 117.823 126.888 118.844 126.916 119.878C126.945 120.913 126.974 121.948 127.002 122.982C127.06 123.988 127.132 124.994 127.218 126H121.743C121.657 125.138 121.585 124.218 121.527 123.241C121.47 122.235 121.441 121.2 121.441 120.137H120.838C120.521 121.344 119.99 122.436 119.242 123.413C118.495 124.391 117.561 125.167 116.44 125.741C115.319 126.316 114.026 126.604 112.56 126.604ZM115.147 122.077C115.693 122.077 116.253 121.976 116.828 121.775C117.432 121.545 118.007 121.229 118.553 120.827C119.099 120.424 119.573 119.907 119.975 119.275C120.378 118.614 120.679 117.852 120.881 116.99L120.838 114.274L121.872 114.36C121.441 114.734 120.895 115.035 120.234 115.265C119.602 115.467 118.912 115.639 118.165 115.783C117.446 115.898 116.713 116.027 115.966 116.171C115.248 116.314 114.586 116.501 113.983 116.731C113.408 116.961 112.948 117.277 112.603 117.68C112.258 118.053 112.086 118.599 112.086 119.318C112.086 120.18 112.373 120.855 112.948 121.344C113.523 121.833 114.256 122.077 115.147 122.077ZM139.565 126.517C137.036 126.517 135.168 125.856 133.961 124.534C132.754 123.183 132.15 121.085 132.15 118.24V108.238H129.089L129.176 103.668H130.771C131.892 103.611 132.711 103.352 133.228 102.892C133.745 102.404 134.061 101.642 134.176 100.608L134.564 98.2796H138.143V103.367H143.747V108.411H138.143V117.895C138.143 118.959 138.387 119.735 138.876 120.223C139.393 120.683 140.126 120.913 141.074 120.913C141.563 120.913 142.051 120.855 142.54 120.74C143.029 120.597 143.46 120.396 143.833 120.137V125.871C142.971 126.129 142.181 126.302 141.462 126.388C140.744 126.474 140.111 126.517 139.565 126.517ZM157.285 126.604C155.359 126.604 153.678 126.331 152.241 125.784C150.804 125.238 149.597 124.462 148.62 123.456C147.642 122.451 146.91 121.243 146.421 119.835C145.932 118.398 145.688 116.817 145.688 115.093C145.688 113.368 145.932 111.759 146.421 110.264C146.91 108.741 147.614 107.419 148.533 106.298C149.482 105.177 150.646 104.315 152.025 103.712C153.434 103.079 155.043 102.763 156.854 102.763C158.636 102.763 160.202 103.065 161.553 103.668C162.904 104.243 164.01 105.105 164.873 106.255C165.764 107.376 166.396 108.741 166.769 110.351C167.143 111.931 167.229 113.728 167.028 115.74L149.697 115.912V112.463L163.062 112.334L161.337 114.144C161.51 112.679 161.424 111.472 161.079 110.523C160.734 109.546 160.202 108.827 159.484 108.368C158.765 107.879 157.903 107.635 156.897 107.635C155.805 107.635 154.856 107.922 154.052 108.497C153.276 109.072 152.686 109.905 152.284 110.997C151.882 112.089 151.681 113.397 151.681 114.92C151.681 117.335 152.169 119.117 153.146 120.266C154.152 121.416 155.546 121.991 157.328 121.991C158.133 121.991 158.808 121.89 159.354 121.689C159.9 121.459 160.346 121.172 160.691 120.827C161.036 120.453 161.294 120.036 161.467 119.576C161.668 119.117 161.797 118.642 161.855 118.154L167.373 119.016C167.258 120.079 166.971 121.071 166.511 121.991C166.08 122.882 165.462 123.672 164.657 124.362C163.852 125.052 162.846 125.598 161.639 126C160.432 126.402 158.981 126.604 157.285 126.604ZM179.07 126.604C177.259 126.604 175.664 126.144 174.284 125.224C172.933 124.276 171.856 122.91 171.051 121.128C170.275 119.318 169.887 117.133 169.887 114.576C169.887 112.19 170.232 110.121 170.922 108.368C171.64 106.586 172.66 105.22 173.982 104.272C175.305 103.295 176.914 102.806 178.811 102.806C180.248 102.806 181.469 103.094 182.475 103.668C183.481 104.215 184.315 105.048 184.976 106.169C185.637 107.261 186.125 108.626 186.442 110.264H187.218C187.045 109.287 186.887 108.339 186.743 107.419C186.6 106.499 186.485 105.637 186.398 104.832C186.312 103.999 186.269 103.237 186.269 102.548V95.4773H192.477V115.826V126H187.218L187.261 119.232H186.571C186.255 120.87 185.766 122.235 185.105 123.327C184.444 124.419 183.611 125.238 182.605 125.784C181.599 126.331 180.42 126.604 179.07 126.604ZM181.139 121.56C182.001 121.56 182.748 121.373 183.381 120.999C184.013 120.597 184.545 120.079 184.976 119.447C185.407 118.815 185.723 118.125 185.924 117.378C186.154 116.602 186.269 115.811 186.269 115.007V114.403C186.269 113.771 186.183 113.153 186.01 112.549C185.867 111.917 185.651 111.328 185.364 110.782C185.076 110.207 184.717 109.704 184.286 109.273C183.884 108.842 183.409 108.511 182.863 108.281C182.317 108.023 181.728 107.893 181.096 107.893C180.09 107.893 179.228 108.195 178.509 108.799C177.819 109.373 177.288 110.178 176.914 111.213C176.54 112.248 176.354 113.426 176.354 114.748C176.354 116.07 176.54 117.248 176.914 118.283C177.316 119.318 177.877 120.123 178.595 120.697C179.314 121.272 180.162 121.56 181.139 121.56ZM206.054 132.898L206.098 113.843L206.054 103.367H211.357L211.314 109.92L211.918 109.963C212.205 108.382 212.679 107.06 213.34 105.996C214.001 104.904 214.835 104.1 215.841 103.582C216.875 103.036 218.068 102.763 219.419 102.763C221.344 102.763 222.983 103.237 224.334 104.186C225.713 105.134 226.762 106.499 227.481 108.281C228.228 110.063 228.602 112.219 228.602 114.748C228.602 117.162 228.242 119.26 227.524 121.042C226.834 122.824 225.828 124.204 224.506 125.181C223.184 126.129 221.574 126.604 219.678 126.604C218.269 126.604 217.062 126.331 216.056 125.784C215.05 125.21 214.217 124.391 213.556 123.327C212.923 122.264 212.42 120.985 212.047 119.49H211.4C211.544 120.324 211.688 121.172 211.831 122.034C211.975 122.867 212.076 123.686 212.133 124.491C212.219 125.296 212.262 126.072 212.262 126.819V132.898H206.054ZM217.479 121.56C218.485 121.56 219.333 121.272 220.022 120.697C220.741 120.123 221.273 119.332 221.618 118.326C221.991 117.292 222.178 116.113 222.178 114.791C222.178 113.44 221.991 112.262 221.618 111.256C221.244 110.221 220.698 109.417 219.979 108.842C219.261 108.267 218.399 107.98 217.393 107.98C216.559 107.98 215.826 108.166 215.194 108.54C214.562 108.914 214.016 109.417 213.556 110.049C213.125 110.652 212.794 111.342 212.564 112.118C212.363 112.894 212.262 113.685 212.262 114.489V115.136C212.262 115.768 212.334 116.401 212.478 117.033C212.65 117.636 212.88 118.211 213.168 118.757C213.484 119.303 213.843 119.792 214.246 120.223C214.677 120.625 215.165 120.956 215.711 121.215C216.257 121.445 216.847 121.56 217.479 121.56ZM239.605 126.604C237.018 126.604 235.078 125.713 233.785 123.931C232.52 122.12 231.888 119.39 231.888 115.74V103.367H238.096V115.222C238.096 117.349 238.398 118.901 239.001 119.878C239.634 120.855 240.582 121.344 241.847 121.344C242.623 121.344 243.298 121.157 243.873 120.784C244.477 120.381 244.994 119.821 245.425 119.102C245.856 118.355 246.187 117.464 246.417 116.429C246.646 115.366 246.776 114.188 246.805 112.894V103.367H253.013V116.3V126H247.839L247.882 118.24H247.279C246.934 120.194 246.445 121.789 245.813 123.025C245.181 124.261 244.347 125.167 243.313 125.741C242.307 126.316 241.071 126.604 239.605 126.604ZM257.44 126V114.705L257.397 103.367H262.657L262.614 111.687H263.26C263.49 109.56 263.864 107.865 264.381 106.6C264.927 105.307 265.66 104.358 266.58 103.755C267.528 103.151 268.663 102.849 269.986 102.849C270.33 102.849 270.69 102.878 271.063 102.936C271.466 102.993 271.882 103.108 272.314 103.28L272.055 109.92C271.566 109.69 271.049 109.517 270.503 109.402C269.986 109.287 269.497 109.23 269.037 109.23C267.974 109.23 267.054 109.503 266.278 110.049C265.531 110.595 264.927 111.385 264.467 112.42C264.036 113.455 263.763 114.719 263.648 116.214V126H257.44ZM274.943 132.898L274.986 113.843L274.943 103.367H280.246L280.203 109.92L280.806 109.963C281.093 108.382 281.568 107.06 282.229 105.996C282.89 104.904 283.723 104.1 284.729 103.582C285.764 103.036 286.957 102.763 288.307 102.763C290.233 102.763 291.871 103.237 293.222 104.186C294.602 105.134 295.651 106.499 296.369 108.281C297.116 110.063 297.49 112.219 297.49 114.748C297.49 117.162 297.131 119.26 296.412 121.042C295.723 122.824 294.717 124.204 293.395 125.181C292.072 126.129 290.463 126.604 288.566 126.604C287.158 126.604 285.951 126.331 284.945 125.784C283.939 125.21 283.105 124.391 282.444 123.327C281.812 122.264 281.309 120.985 280.935 119.49H280.289C280.432 120.324 280.576 121.172 280.72 122.034C280.864 122.867 280.964 123.686 281.022 124.491C281.108 125.296 281.151 126.072 281.151 126.819V132.898H274.943ZM286.367 121.56C287.373 121.56 288.221 121.272 288.911 120.697C289.629 120.123 290.161 119.332 290.506 118.326C290.88 117.292 291.067 116.113 291.067 114.791C291.067 113.44 290.88 112.262 290.506 111.256C290.132 110.221 289.586 109.417 288.868 108.842C288.149 108.267 287.287 107.98 286.281 107.98C285.448 107.98 284.715 108.166 284.083 108.54C283.45 108.914 282.904 109.417 282.444 110.049C282.013 110.652 281.683 111.342 281.453 112.118C281.252 112.894 281.151 113.685 281.151 114.489V115.136C281.151 115.768 281.223 116.401 281.367 117.033C281.539 117.636 281.769 118.211 282.056 118.757C282.372 119.303 282.732 119.792 283.134 120.223C283.565 120.625 284.054 120.956 284.6 121.215C285.146 121.445 285.735 121.56 286.367 121.56ZM311.382 126.604C309.169 126.604 307.2 126.158 305.476 125.267C303.78 124.376 302.444 123.054 301.466 121.301C300.489 119.519 300.001 117.306 300.001 114.662C300.001 111.96 300.489 109.733 301.466 107.98C302.472 106.226 303.837 104.919 305.562 104.056C307.286 103.194 309.241 102.763 311.425 102.763C313.638 102.763 315.607 103.209 317.331 104.1C319.056 104.991 320.392 106.313 321.341 108.066C322.318 109.819 322.806 112.032 322.806 114.705C322.806 117.407 322.303 119.648 321.297 121.43C320.32 123.183 318.969 124.491 317.245 125.353C315.521 126.187 313.566 126.604 311.382 126.604ZM311.554 121.991C312.647 121.991 313.552 121.732 314.27 121.215C315.018 120.669 315.578 119.878 315.952 118.844C316.354 117.78 316.555 116.516 316.555 115.05C316.555 113.469 316.354 112.133 315.952 111.04C315.549 109.948 314.946 109.1 314.141 108.497C313.365 107.893 312.402 107.592 311.253 107.592C310.189 107.592 309.284 107.865 308.537 108.411C307.789 108.928 307.215 109.704 306.812 110.739C306.439 111.773 306.252 113.052 306.252 114.576C306.252 116.961 306.712 118.8 307.631 120.094C308.58 121.358 309.887 121.991 311.554 121.991ZM335.554 126.604C334.06 126.604 332.68 126.445 331.416 126.129C330.18 125.842 329.102 125.411 328.182 124.836C327.292 124.261 326.573 123.528 326.027 122.637C325.51 121.746 325.208 120.726 325.122 119.576L330.122 118.154C330.209 118.93 330.482 119.62 330.942 120.223C331.43 120.798 332.077 121.258 332.882 121.603C333.715 121.919 334.721 122.077 335.899 122.077C337.135 122.077 338.112 121.89 338.831 121.516C339.549 121.114 339.909 120.539 339.909 119.792C339.909 119.275 339.722 118.858 339.348 118.542C338.975 118.226 338.414 117.953 337.667 117.723C336.948 117.493 336.014 117.263 334.865 117.033C333.686 116.774 332.537 116.487 331.416 116.171C330.324 115.855 329.318 115.438 328.398 114.92C327.507 114.403 326.789 113.742 326.242 112.937C325.725 112.104 325.466 111.069 325.466 109.833C325.466 108.396 325.84 107.16 326.587 106.126C327.363 105.062 328.47 104.243 329.907 103.668C331.373 103.065 333.097 102.763 335.08 102.763C336.92 102.763 338.558 103.022 339.995 103.539C341.432 104.056 342.596 104.832 343.487 105.867C344.378 106.902 344.881 108.195 344.996 109.747L339.866 111.04C339.808 110.236 339.564 109.56 339.133 109.014C338.73 108.468 338.17 108.051 337.451 107.764C336.762 107.477 335.942 107.333 334.994 107.333C333.816 107.333 332.896 107.534 332.235 107.936C331.574 108.339 331.243 108.885 331.243 109.575C331.243 110.092 331.445 110.523 331.847 110.868C332.278 111.213 332.882 111.5 333.658 111.73C334.462 111.931 335.425 112.147 336.546 112.377C337.638 112.607 338.716 112.88 339.779 113.196C340.872 113.483 341.863 113.886 342.754 114.403C343.645 114.892 344.349 115.553 344.866 116.386C345.413 117.191 345.686 118.226 345.686 119.49C345.686 120.956 345.283 122.221 344.478 123.284C343.702 124.347 342.553 125.167 341.03 125.741C339.535 126.316 337.71 126.604 335.554 126.604ZM359.488 126.604C357.562 126.604 355.881 126.331 354.444 125.784C353.007 125.238 351.8 124.462 350.823 123.456C349.845 122.451 349.112 121.243 348.624 119.835C348.135 118.398 347.891 116.817 347.891 115.093C347.891 113.368 348.135 111.759 348.624 110.264C349.112 108.741 349.817 107.419 350.736 106.298C351.685 105.177 352.849 104.315 354.228 103.712C355.637 103.079 357.246 102.763 359.057 102.763C360.839 102.763 362.405 103.065 363.756 103.668C365.107 104.243 366.213 105.105 367.075 106.255C367.966 107.376 368.599 108.741 368.972 110.351C369.346 111.931 369.432 113.728 369.231 115.74L351.9 115.912V112.463L365.265 112.334L363.54 114.144C363.713 112.679 363.627 111.472 363.282 110.523C362.937 109.546 362.405 108.827 361.687 108.368C360.968 107.879 360.106 107.635 359.1 107.635C358.008 107.635 357.059 107.922 356.255 108.497C355.479 109.072 354.889 109.905 354.487 110.997C354.085 112.089 353.883 113.397 353.883 114.92C353.883 117.335 354.372 119.117 355.349 120.266C356.355 121.416 357.749 121.991 359.531 121.991C360.336 121.991 361.011 121.89 361.557 121.689C362.103 121.459 362.549 121.172 362.894 120.827C363.239 120.453 363.497 120.036 363.67 119.576C363.871 119.117 364 118.642 364.058 118.154L369.576 119.016C369.461 120.079 369.174 121.071 368.714 121.991C368.283 122.882 367.665 123.672 366.86 124.362C366.055 125.052 365.049 125.598 363.842 126C362.635 126.402 361.184 126.604 359.488 126.604Z" fill="#6E94A7"/>
<path d="M663.56 260L673.304 231.547H682.012L691.712 260H684.987L677.916 236.504H677.399L670.286 260H663.56ZM668.949 254.482V250.171H687.185V254.482H668.949ZM703.963 260.604C702.009 260.604 700.299 260.316 698.833 259.741C697.396 259.138 696.189 258.319 695.212 257.284C694.263 256.221 693.545 254.985 693.056 253.576C692.596 252.168 692.366 250.616 692.366 248.92C692.366 247.196 692.611 245.601 693.099 244.135C693.588 242.669 694.306 241.39 695.255 240.298C696.203 239.177 697.382 238.315 698.79 237.712C700.227 237.079 701.894 236.763 703.791 236.763C705.803 236.763 707.498 237.122 708.878 237.841C710.286 238.531 711.364 239.479 712.111 240.686C712.887 241.865 713.333 243.201 713.448 244.696L707.843 246.075C707.786 245.098 707.57 244.279 707.197 243.618C706.852 242.957 706.363 242.468 705.731 242.152C705.099 241.807 704.366 241.635 703.532 241.635C702.756 241.635 702.066 241.793 701.463 242.109C700.859 242.396 700.342 242.842 699.911 243.445C699.508 244.049 699.192 244.782 698.962 245.644C698.761 246.506 698.661 247.512 698.661 248.662C698.661 250.243 698.862 251.579 699.264 252.671C699.667 253.735 700.27 254.554 701.075 255.128C701.88 255.675 702.871 255.948 704.05 255.948C705.17 255.948 706.061 255.703 706.722 255.215C707.383 254.726 707.858 254.123 708.145 253.404C708.461 252.657 708.619 251.881 708.619 251.076L714.181 251.981C714.152 253.16 713.922 254.266 713.491 255.301C713.06 256.336 712.427 257.255 711.594 258.06C710.76 258.865 709.711 259.497 708.447 259.957C707.182 260.388 705.688 260.604 703.963 260.604ZM725.335 260.517C722.806 260.517 720.938 259.856 719.731 258.534C718.523 257.183 717.92 255.085 717.92 252.24V242.238H714.859L714.945 237.668H716.54C717.661 237.611 718.48 237.352 718.998 236.892C719.515 236.404 719.831 235.642 719.946 234.608L720.334 232.28H723.912V237.367H729.517V242.411H723.912V251.895C723.912 252.959 724.157 253.735 724.645 254.223C725.163 254.683 725.895 254.913 726.844 254.913C727.332 254.913 727.821 254.855 728.31 254.74C728.798 254.597 729.229 254.396 729.603 254.137V259.871C728.741 260.129 727.95 260.302 727.232 260.388C726.513 260.474 725.881 260.517 725.335 260.517ZM740.33 260.604C737.743 260.604 735.803 259.713 734.51 257.931C733.245 256.12 732.613 253.39 732.613 249.74V237.367H738.821V249.222C738.821 251.349 739.122 252.901 739.726 253.878C740.358 254.855 741.307 255.344 742.571 255.344C743.347 255.344 744.023 255.157 744.598 254.784C745.201 254.381 745.718 253.821 746.15 253.102C746.581 252.355 746.911 251.464 747.141 250.429C747.371 249.366 747.5 248.188 747.529 246.894V237.367H753.737V250.3V260H748.564L748.607 252.24H748.003C747.658 254.194 747.17 255.789 746.538 257.025C745.905 258.261 745.072 259.167 744.037 259.741C743.031 260.316 741.795 260.604 740.33 260.604ZM763.64 260.604C762.433 260.604 761.326 260.374 760.32 259.914C759.343 259.454 758.553 258.75 757.949 257.801C757.374 256.853 757.087 255.675 757.087 254.266C757.087 252.973 757.331 251.909 757.82 251.076C758.308 250.214 759.013 249.524 759.932 249.007C760.852 248.461 761.944 248.029 763.209 247.713C764.473 247.397 765.867 247.124 767.391 246.894C768.511 246.693 769.388 246.521 770.02 246.377C770.681 246.233 771.156 246.032 771.443 245.773C771.73 245.486 771.874 245.084 771.874 244.566C771.874 243.675 771.558 242.957 770.926 242.411C770.322 241.865 769.417 241.592 768.21 241.592C767.434 241.592 766.701 241.735 766.011 242.023C765.321 242.281 764.732 242.712 764.243 243.316C763.755 243.92 763.439 244.696 763.295 245.644L757.777 244.437C758.007 243.057 758.423 241.893 759.027 240.945C759.659 239.968 760.45 239.177 761.398 238.574C762.347 237.941 763.41 237.482 764.588 237.194C765.795 236.907 767.06 236.763 768.382 236.763C770.566 236.763 772.363 237.137 773.771 237.884C775.179 238.603 776.228 239.709 776.918 241.204C777.608 242.698 777.953 244.595 777.953 246.894V250.817C777.953 251.823 777.967 252.844 777.996 253.878C778.025 254.913 778.053 255.948 778.082 256.982C778.14 257.988 778.211 258.994 778.298 260H772.823C772.736 259.138 772.664 258.218 772.607 257.241C772.549 256.235 772.521 255.2 772.521 254.137H771.917C771.601 255.344 771.069 256.436 770.322 257.413C769.575 258.391 768.641 259.167 767.52 259.741C766.399 260.316 765.106 260.604 763.64 260.604ZM766.227 256.077C766.773 256.077 767.333 255.976 767.908 255.775C768.511 255.545 769.086 255.229 769.632 254.827C770.178 254.424 770.653 253.907 771.055 253.275C771.457 252.614 771.759 251.852 771.96 250.99L771.917 248.274L772.952 248.36C772.521 248.734 771.975 249.035 771.314 249.265C770.681 249.467 769.992 249.639 769.244 249.783C768.526 249.898 767.793 250.027 767.046 250.171C766.327 250.314 765.666 250.501 765.063 250.731C764.488 250.961 764.028 251.277 763.683 251.68C763.338 252.053 763.166 252.599 763.166 253.318C763.166 254.18 763.453 254.855 764.028 255.344C764.603 255.833 765.336 256.077 766.227 256.077ZM782.194 260V229.477H788.316V260H782.194ZM801.919 260V237.367H808.084V260H801.919ZM805.023 234.478C803.816 234.478 802.882 234.234 802.221 233.745C801.589 233.228 801.272 232.481 801.272 231.504C801.272 230.498 801.589 229.75 802.221 229.262C802.882 228.744 803.816 228.486 805.023 228.486C806.259 228.486 807.193 228.744 807.825 229.262C808.458 229.779 808.774 230.526 808.774 231.504C808.774 232.452 808.458 233.185 807.825 233.702C807.193 234.22 806.259 234.478 805.023 234.478ZM812.561 260V246.765L812.517 237.367H817.691L817.605 245.127H818.294C818.61 243.259 819.085 241.707 819.717 240.471C820.378 239.235 821.24 238.315 822.304 237.712C823.367 237.079 824.66 236.763 826.184 236.763C828.742 236.763 830.682 237.654 832.004 239.436C833.326 241.218 833.987 243.977 833.987 247.713V260H827.736V248.403C827.736 246.219 827.419 244.609 826.787 243.575C826.155 242.54 825.178 242.023 823.856 242.023C822.763 242.023 821.829 242.382 821.053 243.1C820.306 243.79 819.731 244.782 819.329 246.075C818.955 247.368 818.754 248.906 818.725 250.688V260H812.561ZM846.514 260.517C843.985 260.517 842.117 259.856 840.91 258.534C839.703 257.183 839.099 255.085 839.099 252.24V242.238H836.038L836.124 237.668H837.72C838.84 237.611 839.66 237.352 840.177 236.892C840.694 236.404 841.01 235.642 841.125 234.608L841.513 232.28H845.092V237.367H850.696V242.411H845.092V251.895C845.092 252.959 845.336 253.735 845.824 254.223C846.342 254.683 847.075 254.913 848.023 254.913C848.512 254.913 849 254.855 849.489 254.74C849.977 254.597 850.409 254.396 850.782 254.137V259.871C849.92 260.129 849.13 260.302 848.411 260.388C847.693 260.474 847.06 260.517 846.514 260.517ZM864.234 260.604C862.308 260.604 860.627 260.331 859.19 259.784C857.753 259.238 856.546 258.462 855.569 257.456C854.591 256.451 853.858 255.243 853.37 253.835C852.881 252.398 852.637 250.817 852.637 249.093C852.637 247.368 852.881 245.759 853.37 244.264C853.858 242.741 854.563 241.419 855.482 240.298C856.431 239.177 857.595 238.315 858.974 237.712C860.383 237.079 861.992 236.763 863.803 236.763C865.585 236.763 867.151 237.065 868.502 237.668C869.853 238.243 870.959 239.105 871.821 240.255C872.712 241.376 873.345 242.741 873.718 244.351C874.092 245.931 874.178 247.728 873.977 249.74L856.646 249.912V246.463L870.011 246.334L868.286 248.144C868.459 246.679 868.373 245.472 868.028 244.523C867.683 243.546 867.151 242.827 866.433 242.368C865.714 241.879 864.852 241.635 863.846 241.635C862.754 241.635 861.805 241.922 861.001 242.497C860.225 243.072 859.635 243.905 859.233 244.997C858.831 246.089 858.629 247.397 858.629 248.92C858.629 251.335 859.118 253.117 860.095 254.266C861.101 255.416 862.495 255.991 864.277 255.991C865.082 255.991 865.757 255.89 866.303 255.689C866.849 255.459 867.295 255.172 867.64 254.827C867.985 254.453 868.243 254.036 868.416 253.576C868.617 253.117 868.746 252.642 868.804 252.154L874.322 253.016C874.207 254.079 873.92 255.071 873.46 255.991C873.029 256.882 872.411 257.672 871.606 258.362C870.801 259.052 869.795 259.598 868.588 260C867.381 260.402 865.93 260.604 864.234 260.604ZM877.66 260V246.765L877.617 237.367H882.79L882.704 245.127H883.394C883.71 243.259 884.184 241.707 884.816 240.471C885.477 239.235 886.34 238.315 887.403 237.712C888.467 237.079 889.76 236.763 891.283 236.763C893.841 236.763 895.781 237.654 897.103 239.436C898.425 241.218 899.086 243.977 899.086 247.713V260H892.835V248.403C892.835 246.219 892.519 244.609 891.887 243.575C891.254 242.54 890.277 242.023 888.955 242.023C887.863 242.023 886.929 242.382 886.153 243.1C885.406 243.79 884.831 244.782 884.428 246.075C884.055 247.368 883.854 248.906 883.825 250.688V260H877.66ZM911.614 260.517C909.085 260.517 907.216 259.856 906.009 258.534C904.802 257.183 904.199 255.085 904.199 252.24V242.238H901.138L901.224 237.668H902.819C903.94 237.611 904.759 237.352 905.276 236.892C905.794 236.404 906.11 235.642 906.225 234.608L906.613 232.28H910.191V237.367H915.795V242.411H910.191V251.895C910.191 252.959 910.435 253.735 910.924 254.223C911.441 254.683 912.174 254.913 913.123 254.913C913.611 254.913 914.1 254.855 914.588 254.74C915.077 254.597 915.508 254.396 915.882 254.137V259.871C915.019 260.129 914.229 260.302 913.511 260.388C912.792 260.474 912.16 260.517 911.614 260.517Z" fill="#8B3A1E"/>
<path d="M651.414 249.414C652.195 248.633 652.195 247.367 651.414 246.586L638.686 233.858C637.905 233.077 636.639 233.077 635.858 233.858C635.077 234.639 635.077 235.905 635.858 236.686L647.172 248L635.858 259.314C635.077 260.095 635.077 261.361 635.858 262.142C636.639 262.923 637.905 262.923 638.686 262.142L651.414 249.414ZM271 149V151C329.255 151 369.685 157.173 400.615 166.386C431.531 175.594 453.051 187.864 473.528 200.213C494.001 212.559 513.536 225.056 540.243 234.419C566.973 243.79 600.804 250 650 250V248V246C601.152 246 567.784 239.835 541.566 230.644C515.325 221.444 496.161 209.191 475.593 196.787C455.029 184.386 433.164 171.906 401.757 162.552C370.366 153.202 329.535 147 271 147V149Z" fill="#8B3A1E"/>
<path d="M52.453 149L64 160.547L75.547 149L64 137.453L52.453 149ZM935.414 150.414C936.195 149.633 936.195 148.367 935.414 147.586L922.686 134.858C921.905 134.077 920.639 134.077 919.858 134.858C919.077 135.639 919.077 136.905 919.858 137.686L931.172 149L919.858 160.314C919.077 161.095 919.077 162.361 919.858 163.142C920.639 163.923 921.905 163.923 922.686 163.142L935.414 150.414ZM64 149L64 151L934 151L934 149L934 147L64 147L64 149Z" fill="#6E94A7"/>
<circle cx="445" cy="181.5" r="6.5" fill="#8B3A1E"/>
<circle cx="484" cy="205.5" r="6.5" fill="#8B3A1E"/>
<circle cx="525.5" cy="226.5" r="6.5" fill="#8B3A1E"/>
<path d="M349.528 217L353.032 205.8H354.584L358.072 217H356.6L355.784 214.216H351.816L351 217H349.528ZM353.768 207.688L352.152 213.096H355.448L353.832 207.688H353.768ZM363.522 217.192C362.807 217.192 362.167 217.027 361.602 216.696C361.047 216.365 360.604 215.891 360.274 215.272C359.943 214.643 359.778 213.896 359.778 213.032C359.778 212.168 359.943 211.427 360.274 210.808C360.604 210.179 361.052 209.699 361.618 209.368C362.194 209.037 362.828 208.872 363.522 208.872C364.503 208.872 365.287 209.117 365.874 209.608C366.46 210.099 366.834 210.755 366.994 211.576H365.618C365.49 211.139 365.244 210.792 364.882 210.536C364.519 210.269 364.06 210.136 363.506 210.136C363.1 210.136 362.716 210.243 362.354 210.456C361.991 210.669 361.698 210.989 361.474 211.416C361.25 211.843 361.138 212.381 361.138 213.032C361.138 213.683 361.25 214.227 361.474 214.664C361.698 215.091 361.991 215.411 362.354 215.624C362.716 215.837 363.1 215.944 363.506 215.944C364.092 215.944 364.556 215.811 364.898 215.544C365.25 215.277 365.49 214.925 365.618 214.488H366.994C366.791 215.331 366.391 215.992 365.794 216.472C365.207 216.952 364.45 217.192 363.522 217.192ZM373.116 217.192C372.401 217.192 371.761 217.027 371.196 216.696C370.641 216.365 370.198 215.891 369.868 215.272C369.537 214.643 369.372 213.896 369.372 213.032C369.372 212.168 369.537 211.427 369.868 210.808C370.198 210.179 370.646 209.699 371.212 209.368C371.788 209.037 372.422 208.872 373.116 208.872C374.097 208.872 374.881 209.117 375.468 209.608C376.054 210.099 376.428 210.755 376.588 211.576H375.212C375.084 211.139 374.838 210.792 374.476 210.536C374.113 210.269 373.654 210.136 373.1 210.136C372.694 210.136 372.31 210.243 371.948 210.456C371.585 210.669 371.292 210.989 371.068 211.416C370.844 211.843 370.732 212.381 370.732 213.032C370.732 213.683 370.844 214.227 371.068 214.664C371.292 215.091 371.585 215.411 371.948 215.624C372.31 215.837 372.694 215.944 373.1 215.944C373.686 215.944 374.15 215.811 374.492 215.544C374.844 215.277 375.084 214.925 375.212 214.488H376.588C376.385 215.331 375.985 215.992 375.388 216.472C374.801 216.952 374.044 217.192 373.116 217.192ZM382.021 217.192C381.061 217.192 380.336 216.904 379.845 216.328C379.355 215.752 379.109 214.92 379.109 213.832V209.064H380.453V213.672C380.453 214.376 380.608 214.931 380.917 215.336C381.237 215.731 381.717 215.928 382.357 215.928C382.997 215.928 383.536 215.715 383.973 215.288C384.411 214.851 384.629 214.227 384.629 213.416V209.064H385.973V217H384.853L384.709 215.8H384.629C384.416 216.184 384.08 216.515 383.621 216.792C383.163 217.059 382.629 217.192 382.021 217.192ZM387.967 217V209.064H389.071L389.215 209.992H389.295C389.434 209.672 389.642 209.405 389.919 209.192C390.207 208.979 390.554 208.872 390.959 208.872C391.364 208.872 391.706 208.973 391.983 209.176C392.271 209.368 392.479 209.64 392.607 209.992H392.671C392.81 209.672 393.034 209.405 393.343 209.192C393.652 208.979 394.026 208.872 394.463 208.872C395.071 208.872 395.524 209.08 395.823 209.496C396.132 209.901 396.287 210.445 396.287 211.128V217H394.975V211.336C394.975 210.952 394.895 210.648 394.735 210.424C394.586 210.2 394.34 210.088 393.999 210.088C393.647 210.088 393.359 210.221 393.135 210.488C392.911 210.755 392.799 211.133 392.799 211.624V217H391.471V211.336C391.471 210.952 391.396 210.648 391.247 210.424C391.098 210.2 390.852 210.088 390.511 210.088C390.159 210.088 389.866 210.221 389.631 210.488C389.407 210.755 389.295 211.133 389.295 211.624V217H387.967ZM401.209 217.192C400.249 217.192 399.523 216.904 399.033 216.328C398.542 215.752 398.297 214.92 398.297 213.832V209.064H399.641V213.672C399.641 214.376 399.795 214.931 400.105 215.336C400.425 215.731 400.905 215.928 401.545 215.928C402.185 215.928 402.723 215.715 403.161 215.288C403.598 214.851 403.817 214.227 403.817 213.416V209.064H405.161V217H404.041L403.897 215.8H403.817C403.603 216.184 403.267 216.515 402.809 216.792C402.35 217.059 401.817 217.192 401.209 217.192ZM407.763 217V215.848H410.467V207.032C410.467 206.765 410.333 206.632 410.067 206.632H408.051V205.48H410.387C410.845 205.48 411.197 205.603 411.443 205.848C411.688 206.093 411.811 206.445 411.811 206.904V215.848H414.515V217H407.763ZM420.284 217.192C419.655 217.192 419.132 217.08 418.716 216.856C418.3 216.632 417.991 216.339 417.788 215.976C417.586 215.603 417.484 215.197 417.484 214.76C417.484 213.949 417.778 213.336 418.364 212.92C418.962 212.493 419.756 212.28 420.748 212.28H422.924V212.12C422.924 210.733 422.29 210.04 421.02 210.04C420.508 210.04 420.076 210.152 419.724 210.376C419.383 210.6 419.164 210.952 419.068 211.432H417.692C417.746 210.899 417.922 210.44 418.22 210.056C418.53 209.672 418.924 209.379 419.404 209.176C419.884 208.973 420.423 208.872 421.02 208.872C422.151 208.872 422.972 209.171 423.484 209.768C424.007 210.355 424.268 211.139 424.268 212.12V217H423.116L423.004 215.768H422.892C422.658 216.152 422.343 216.488 421.948 216.776C421.564 217.053 421.01 217.192 420.284 217.192ZM420.524 216.008C421.036 216.008 421.468 215.885 421.82 215.64C422.183 215.395 422.455 215.069 422.636 214.664C422.828 214.259 422.924 213.816 422.924 213.336H420.86C420.135 213.336 419.623 213.459 419.324 213.704C419.036 213.949 418.892 214.275 418.892 214.68C418.892 215.096 419.031 215.421 419.308 215.656C419.586 215.891 419.991 216.008 420.524 216.008ZM431.382 217C430.657 217 430.086 216.824 429.67 216.472C429.254 216.12 429.046 215.485 429.046 214.568V210.216H427.03V209.064H428.23C428.774 209.064 429.089 208.797 429.174 208.264L429.398 207.032H430.39V209.064H433.558V210.216H430.39V214.568C430.39 215.016 430.491 215.331 430.694 215.512C430.907 215.693 431.27 215.784 431.782 215.784H433.558V217H431.382ZM440.224 217.192C439.477 217.192 438.816 217.021 438.24 216.68C437.674 216.328 437.226 215.843 436.896 215.224C436.565 214.595 436.4 213.864 436.4 213.032C436.4 212.2 436.56 211.475 436.88 210.856C437.21 210.227 437.664 209.741 438.24 209.4C438.816 209.048 439.488 208.872 440.256 208.872C441.024 208.872 441.68 209.048 442.224 209.4C442.768 209.741 443.184 210.195 443.472 210.76C443.76 211.325 443.904 211.933 443.904 212.584C443.904 212.701 443.898 212.819 443.888 212.936C443.888 213.053 443.888 213.187 443.888 213.336H437.728C437.76 213.923 437.893 214.413 438.128 214.808C438.373 215.192 438.677 215.48 439.04 215.672C439.413 215.864 439.808 215.96 440.224 215.96C440.81 215.96 441.269 215.837 441.6 215.592C441.93 215.347 442.181 215.005 442.352 214.568H443.68C443.498 215.304 443.12 215.928 442.544 216.44C441.968 216.941 441.194 217.192 440.224 217.192ZM440.224 210.072C439.605 210.072 439.061 210.259 438.592 210.632C438.133 211.005 437.85 211.528 437.744 212.2H442.576C442.533 211.539 442.293 211.021 441.856 210.648C441.429 210.264 440.885 210.072 440.224 210.072ZM449.466 217.192C448.794 217.192 448.191 217.032 447.658 216.712C447.135 216.392 446.724 215.923 446.426 215.304C446.127 214.675 445.978 213.912 445.978 213.016C445.978 212.131 446.127 211.379 446.426 210.76C446.724 210.141 447.135 209.672 447.658 209.352C448.191 209.032 448.794 208.872 449.466 208.872C450.095 208.872 450.612 208.995 451.018 209.24C451.434 209.485 451.743 209.805 451.946 210.2V205.48H453.29V217H452.186L452.042 215.768H451.946C451.732 216.205 451.418 216.552 451.002 216.808C450.586 217.064 450.074 217.192 449.466 217.192ZM449.641 215.912C450.314 215.912 450.868 215.677 451.306 215.208C451.743 214.728 451.962 214.003 451.962 213.032C451.962 212.061 451.743 211.341 451.306 210.872C450.868 210.392 450.314 210.152 449.641 210.152C448.97 210.152 448.415 210.392 447.978 210.872C447.551 211.341 447.338 212.061 447.338 213.032C447.338 214.003 447.551 214.728 447.978 215.208C448.415 215.677 448.97 215.912 449.641 215.912ZM353.88 236.192C352.867 236.192 352.045 235.957 351.416 235.488C350.797 235.008 350.451 234.352 350.376 233.52H351.768C351.832 233.957 352.045 234.315 352.408 234.592C352.781 234.869 353.283 235.008 353.912 235.008C354.509 235.008 354.952 234.88 355.24 234.624C355.539 234.368 355.688 234.075 355.688 233.744C355.688 233.296 355.512 232.992 355.16 232.832C354.808 232.661 354.28 232.533 353.576 232.448C352.733 232.352 352.035 232.123 351.48 231.76C350.925 231.397 350.648 230.853 350.648 230.128C350.648 229.477 350.92 228.939 351.464 228.512C352.008 228.085 352.749 227.872 353.688 227.872C354.616 227.872 355.347 228.085 355.88 228.512C356.413 228.928 356.717 229.525 356.792 230.304H355.464C355.432 229.92 355.245 229.616 354.904 229.392C354.573 229.157 354.157 229.04 353.656 229.04C353.133 229.04 352.728 229.141 352.44 229.344C352.152 229.536 352.008 229.792 352.008 230.112C352.008 230.432 352.168 230.699 352.488 230.912C352.819 231.115 353.336 231.248 354.04 231.312C354.595 231.376 355.101 231.483 355.56 231.632C356.019 231.781 356.381 232.016 356.648 232.336C356.925 232.656 357.064 233.104 357.064 233.68C357.075 234.16 356.941 234.592 356.664 234.976C356.397 235.349 356.024 235.648 355.544 235.872C355.064 236.085 354.509 236.192 353.88 236.192ZM359.186 236V228.064H360.29L360.434 228.992H360.514C360.652 228.672 360.86 228.405 361.138 228.192C361.426 227.979 361.772 227.872 362.178 227.872C362.583 227.872 362.924 227.973 363.202 228.176C363.49 228.368 363.698 228.64 363.826 228.992H363.89C364.028 228.672 364.252 228.405 364.562 228.192C364.871 227.979 365.244 227.872 365.682 227.872C366.29 227.872 366.743 228.08 367.042 228.496C367.351 228.901 367.506 229.445 367.506 230.128V236H366.194V230.336C366.194 229.952 366.114 229.648 365.954 229.424C365.804 229.2 365.559 229.088 365.218 229.088C364.866 229.088 364.578 229.221 364.354 229.488C364.13 229.755 364.018 230.133 364.018 230.624V236H362.69V230.336C362.69 229.952 362.615 229.648 362.466 229.424C362.316 229.2 362.071 229.088 361.73 229.088C361.378 229.088 361.084 229.221 360.85 229.488C360.626 229.755 360.514 230.133 360.514 230.624V236H359.186ZM372.316 236.192C371.686 236.192 371.164 236.08 370.748 235.856C370.332 235.632 370.022 235.339 369.82 234.976C369.617 234.603 369.516 234.197 369.516 233.76C369.516 232.949 369.809 232.336 370.396 231.92C370.993 231.493 371.788 231.28 372.78 231.28H374.956V231.12C374.956 229.733 374.321 229.04 373.052 229.04C372.54 229.04 372.108 229.152 371.756 229.376C371.414 229.6 371.196 229.952 371.1 230.432H369.724C369.777 229.899 369.953 229.44 370.252 229.056C370.561 228.672 370.956 228.379 371.436 228.176C371.916 227.973 372.454 227.872 373.052 227.872C374.182 227.872 375.004 228.171 375.516 228.768C376.038 229.355 376.3 230.139 376.3 231.12V236H375.148L375.036 234.768H374.924C374.689 235.152 374.374 235.488 373.98 235.776C373.596 236.053 373.041 236.192 372.316 236.192ZM372.556 235.008C373.068 235.008 373.5 234.885 373.852 234.64C374.214 234.395 374.486 234.069 374.668 233.664C374.86 233.259 374.956 232.816 374.956 232.336H372.891C372.166 232.336 371.654 232.459 371.356 232.704C371.068 232.949 370.924 233.275 370.924 233.68C370.924 234.096 371.062 234.421 371.34 234.656C371.617 234.891 372.022 235.008 372.556 235.008ZM378.981 236V234.848H381.685V226.032C381.685 225.765 381.552 225.632 381.285 225.632H379.269V224.48H381.605C382.064 224.48 382.416 224.603 382.661 224.848C382.907 225.093 383.029 225.445 383.029 225.904V234.848H385.733V236H378.981ZM388.575 236V234.848H391.279V226.032C391.279 225.765 391.146 225.632 390.879 225.632H388.863V224.48H391.199C391.658 224.48 392.01 224.603 392.255 224.848C392.5 225.093 392.623 225.445 392.623 225.904V234.848H395.327V236H388.575ZM411.091 236.192C410.419 236.192 409.816 236.032 409.283 235.712C408.76 235.392 408.349 234.923 408.051 234.304C407.752 233.675 407.603 232.912 407.603 232.016C407.603 231.131 407.752 230.379 408.051 229.76C408.349 229.141 408.76 228.672 409.283 228.352C409.816 228.032 410.419 227.872 411.091 227.872C411.72 227.872 412.237 227.995 412.643 228.24C413.059 228.485 413.368 228.805 413.571 229.2V224.48H414.915V236H413.811L413.667 234.768H413.571C413.357 235.205 413.043 235.552 412.627 235.808C412.211 236.064 411.699 236.192 411.091 236.192ZM411.266 234.912C411.939 234.912 412.493 234.677 412.931 234.208C413.368 233.728 413.587 233.003 413.587 232.032C413.587 231.061 413.368 230.341 412.931 229.872C412.493 229.392 411.939 229.152 411.266 229.152C410.595 229.152 410.04 229.392 409.603 229.872C409.176 230.341 408.963 231.061 408.963 232.032C408.963 233.003 409.176 233.728 409.603 234.208C410.04 234.677 410.595 234.912 411.266 234.912ZM421.036 236.192C420.29 236.192 419.628 236.021 419.052 235.68C418.487 235.328 418.039 234.843 417.708 234.224C417.378 233.595 417.212 232.864 417.212 232.032C417.212 231.2 417.372 230.475 417.692 229.856C418.023 229.227 418.476 228.741 419.052 228.4C419.628 228.048 420.3 227.872 421.068 227.872C421.836 227.872 422.492 228.048 423.036 228.4C423.58 228.741 423.996 229.195 424.284 229.76C424.572 230.325 424.716 230.933 424.716 231.584C424.716 231.701 424.711 231.819 424.7 231.936C424.7 232.053 424.7 232.187 424.7 232.336H418.54C418.572 232.923 418.706 233.413 418.94 233.808C419.186 234.192 419.49 234.48 419.852 234.672C420.226 234.864 420.62 234.96 421.036 234.96C421.623 234.96 422.082 234.837 422.412 234.592C422.743 234.347 422.994 234.005 423.164 233.568H424.492C424.311 234.304 423.932 234.928 423.356 235.44C422.78 235.941 422.007 236.192 421.036 236.192ZM421.036 229.072C420.418 229.072 419.874 229.259 419.404 229.632C418.946 230.005 418.663 230.528 418.556 231.2H423.388C423.346 230.539 423.106 230.021 422.668 229.648C422.242 229.264 421.698 229.072 421.036 229.072ZM430.678 236.192C429.963 236.192 429.323 236.027 428.758 235.696C428.203 235.365 427.761 234.891 427.43 234.272C427.099 233.643 426.934 232.896 426.934 232.032C426.934 231.168 427.099 230.427 427.43 229.808C427.761 229.179 428.209 228.699 428.774 228.368C429.35 228.037 429.985 227.872 430.678 227.872C431.659 227.872 432.443 228.117 433.03 228.608C433.617 229.099 433.99 229.755 434.15 230.576H432.774C432.646 230.139 432.401 229.792 432.038 229.536C431.675 229.269 431.217 229.136 430.662 229.136C430.257 229.136 429.873 229.243 429.51 229.456C429.147 229.669 428.854 229.989 428.63 230.416C428.406 230.843 428.294 231.381 428.294 232.032C428.294 232.683 428.406 233.227 428.63 233.664C428.854 234.091 429.147 234.411 429.51 234.624C429.873 234.837 430.257 234.944 430.662 234.944C431.249 234.944 431.713 234.811 432.054 234.544C432.406 234.277 432.646 233.925 432.774 233.488H434.15C433.947 234.331 433.547 234.992 432.95 235.472C432.363 235.952 431.606 236.192 430.678 236.192ZM440.048 226.656C439.728 226.656 439.461 226.549 439.248 226.336C439.034 226.123 438.928 225.867 438.928 225.568C438.928 225.259 439.034 225.003 439.248 224.8C439.461 224.587 439.728 224.48 440.048 224.48C440.357 224.48 440.618 224.587 440.832 224.8C441.056 225.003 441.168 225.259 441.168 225.568C441.168 225.867 441.056 226.123 440.832 226.336C440.618 226.549 440.357 226.656 440.048 226.656ZM436.944 236V234.848H439.472V229.616C439.472 229.349 439.338 229.216 439.072 229.216H437.216V228.064H439.392C440.341 228.064 440.816 228.539 440.816 229.488V234.848H443.344V236H436.944ZM449.818 236.192C448.804 236.192 447.983 235.957 447.354 235.488C446.735 235.008 446.388 234.352 446.314 233.52H447.706C447.77 233.957 447.983 234.315 448.346 234.592C448.719 234.869 449.22 235.008 449.85 235.008C450.447 235.008 450.89 234.88 451.178 234.624C451.476 234.368 451.626 234.075 451.626 233.744C451.626 233.296 451.45 232.992 451.098 232.832C450.746 232.661 450.218 232.533 449.514 232.448C448.671 232.352 447.972 232.123 447.418 231.76C446.863 231.397 446.586 230.853 446.586 230.128C446.586 229.477 446.858 228.939 447.402 228.512C447.946 228.085 448.687 227.872 449.626 227.872C450.554 227.872 451.284 228.085 451.818 228.512C452.351 228.928 452.655 229.525 452.73 230.304H451.402C451.37 229.92 451.183 229.616 450.842 229.392C450.511 229.157 450.095 229.04 449.594 229.04C449.071 229.04 448.666 229.141 448.378 229.344C448.09 229.536 447.946 229.792 447.946 230.112C447.946 230.432 448.106 230.699 448.426 230.912C448.756 231.115 449.274 231.248 449.978 231.312C450.532 231.376 451.039 231.483 451.498 231.632C451.956 231.781 452.319 232.016 452.586 232.336C452.863 232.656 453.002 233.104 453.002 233.68C453.012 234.16 452.879 234.592 452.602 234.976C452.335 235.349 451.962 235.648 451.482 235.872C451.002 236.085 450.447 236.192 449.818 236.192ZM459.235 226.656C458.915 226.656 458.649 226.549 458.435 226.336C458.222 226.123 458.115 225.867 458.115 225.568C458.115 225.259 458.222 225.003 458.435 224.8C458.649 224.587 458.915 224.48 459.235 224.48C459.545 224.48 459.806 224.587 460.019 224.8C460.243 225.003 460.355 225.259 460.355 225.568C460.355 225.867 460.243 226.123 460.019 226.336C459.806 226.549 459.545 226.656 459.235 226.656ZM456.131 236V234.848H458.659V229.616C458.659 229.349 458.526 229.216 458.259 229.216H456.403V228.064H458.579C459.529 228.064 460.003 228.539 460.003 229.488V234.848H462.531V236H456.131ZM468.925 236.192C468.178 236.192 467.517 236.021 466.941 235.68C466.365 235.339 465.912 234.859 465.581 234.24C465.25 233.611 465.085 232.875 465.085 232.032C465.085 231.189 465.25 230.459 465.581 229.84C465.912 229.211 466.365 228.725 466.941 228.384C467.517 228.043 468.178 227.872 468.925 227.872C469.672 227.872 470.333 228.043 470.909 228.384C471.485 228.725 471.938 229.211 472.269 229.84C472.6 230.459 472.765 231.189 472.765 232.032C472.765 232.875 472.6 233.611 472.269 234.24C471.938 234.859 471.485 235.339 470.909 235.68C470.333 236.021 469.672 236.192 468.925 236.192ZM468.925 234.912C469.384 234.912 469.8 234.811 470.173 234.608C470.546 234.405 470.84 234.091 471.053 233.664C471.277 233.237 471.389 232.693 471.389 232.032C471.389 231.371 471.277 230.827 471.053 230.4C470.84 229.973 470.546 229.659 470.173 229.456C469.8 229.253 469.384 229.152 468.925 229.152C468.477 229.152 468.066 229.253 467.693 229.456C467.32 229.659 467.021 229.973 466.797 230.4C466.573 230.827 466.461 231.371 466.461 232.032C466.461 233.024 466.701 233.755 467.181 234.224C467.661 234.683 468.242 234.912 468.925 234.912ZM475.127 236V228.064H476.247L476.391 229.264H476.471C476.684 228.88 477.02 228.555 477.479 228.288C477.937 228.011 478.465 227.872 479.063 227.872C480.033 227.872 480.759 228.16 481.239 228.736C481.729 229.312 481.975 230.144 481.975 231.232V236H480.631V231.392C480.631 230.688 480.476 230.139 480.167 229.744C479.857 229.339 479.377 229.136 478.727 229.136C478.097 229.136 477.564 229.355 477.127 229.792C476.689 230.219 476.471 230.837 476.471 231.648V236H475.127ZM488.193 236.192C487.179 236.192 486.358 235.957 485.729 235.488C485.11 235.008 484.763 234.352 484.689 233.52H486.081C486.145 233.957 486.358 234.315 486.721 234.592C487.094 234.869 487.595 235.008 488.225 235.008C488.822 235.008 489.265 234.88 489.553 234.624C489.851 234.368 490.001 234.075 490.001 233.744C490.001 233.296 489.825 232.992 489.473 232.832C489.121 232.661 488.593 232.533 487.889 232.448C487.046 232.352 486.347 232.123 485.793 231.76C485.238 231.397 484.961 230.853 484.961 230.128C484.961 229.477 485.233 228.939 485.777 228.512C486.321 228.085 487.062 227.872 488.001 227.872C488.929 227.872 489.659 228.085 490.193 228.512C490.726 228.928 491.03 229.525 491.105 230.304H489.777C489.745 229.92 489.558 229.616 489.217 229.392C488.886 229.157 488.47 229.04 487.969 229.04C487.446 229.04 487.041 229.141 486.753 229.344C486.465 229.536 486.321 229.792 486.321 230.112C486.321 230.432 486.481 230.699 486.801 230.912C487.131 231.115 487.649 231.248 488.353 231.312C488.907 231.376 489.414 231.483 489.873 231.632C490.331 231.781 490.694 232.016 490.961 232.336C491.238 232.656 491.377 233.104 491.377 233.68C491.387 234.16 491.254 234.592 490.977 234.976C490.71 235.349 490.337 235.648 489.857 235.872C489.377 236.085 488.822 236.192 488.193 236.192Z" fill="#8B3A1E"/>
</g>
<defs>
<clipPath id="clip0_50_535">
<rect width="1000" height="348" fill="white"/>
</clipPath>
</defs>
</svg>
